<svg xmlns="http://www.w3.org/2000/svg" viewBox="0 0 160 160" width="512" height="512">
  <g transform="translate(5, -5)">
    <path d="M55.5 32c-20.3 8.6-20.5 37.4 4.9 44.9l0 3.2c0 0-12-.1-17.1.3-2.5.2-4.5 6-4.5 6-1.5.4-5.8-.6-5.8 8.3l-3 22.2c-2.8-.9-4.5 2.1-4.8 4.6l-2.8 17.8c-2 7.6-.1 6.7 2.7 7 1 6.6 5.9 7.3 7 0.6 1.1.3 4.9.8 4.9-5.7l.4-17.2c.4-6.8-1.4-7.2-3.2-6.9l2.7-25.9s2.2-4.1 3.4-2.7l2.7 30.7c.8 9.2 8.9 14.1 14.9 14.3l16.6-.1c12.5-2.1 15.3-11 15.8-16.3l2.2-27.9-1.1-2.7c.5-.4 3.8 2.6 3.3 3l5.1 17.8s-2.8 1.9-2.4 3c0 0 3.1 17 3.1 17.3.8 11.8 6.1 8.6 7.3 8.3.9 8.7 4.9 7.2 4.3-.4 1.3-.5 4.2-2.4 2.1-6.5l-8.2-21.9c0-.4-4.3-.8-4.3-.5 0 0-7-20.6-7.7-20.8 0 0-6.8-6-9.1-6.2-4.7-.4-12.5.4-12.5.4l-.1-3.3c30.3-3.7 30.1-52.1-13.2-45.9l-.8-4.4c1.6-4.1-4.9-2-1.5.2l.9 5.3z" fill="#FFFFFF" stroke="#2C3E50" stroke-width="1.5"/>

    <path d="M63.9 47.9s-11.4-.8-11.3 10.6c.1 12.1 10.2 11.4 10.3 11.3l16.1.2c4.6-.2 11.2-1.8 11.4-11.1.1-6.1-2.7-11.1-11.5-11-5.1.1-15 0-15 0z" fill="#E6F7F8" stroke="#3498DB" stroke-width="1.5"/>
    <rect x="67.6" y="64.9" width="11.5" height="3.1" fill="#34495E"/>
    <circle cx="64.9" cy="55.9" r="3.2" fill="#2C3E50"/>
    <circle cx="81" cy="55.8" r="3.2" fill="#2C3E50"/>

    <g fill="none" stroke="#2C3E50" stroke-width="5">
      <line x1="68.2" y1="116" x2="68.2" y2="132"/>
      <line x1="60" y1="124" x2="76" y2="124"/>
    </g>

    <g transform="matrix(1.15, 0, 0, 1, -71, 38)" fill="none" stroke="#172431" stroke-width="1.2">
      <path d="M128.2 55.9c1.7-2.9 1.3-8.7 1.3-8.7s.7-.2.8-.3c1.2 1.7.9 6-0.5 9.5 4 1.8 4.2 5.5 3.1 7.2-1.3 2.1-4.6 3.2-7 1.6-2.5-1.6-4.9-7.6 2.3-9.3z"/>
      <path d="M113.9 55.7c4 .4 5.9 3.8 5.9 10.7 0 .6-.4.9-1 1.3l-3.8 0c-.7 0-1.1-1.5-.1-2.4l2.7 0c.2-9.8-8.5-9.7-8.3-0.1l2.4 0c1.6.6.5 2.6-.1 2.4l-3.7 0c-2.1-.6-.1-11.6 3.8-11.6-1.9-2.7-1.7-7.1.7-8.9.1 0 1.5-.1 1.8.4-1.8 1.6-1.6 4.9-.3 8.2z"/>
      <circle cx="128.5" cy="60.9" r="4" stroke-width="2"/>
    </g>
  </g>
</svg>
